<?xml version="1.0" encoding="utf-8" standalone="no"?>
<!DOCTYPE svg PUBLIC "-//W3C//DTD SVG 1.1//EN"
  "http://www.w3.org/Graphics/SVG/1.1/DTD/svg11.dtd">
<!-- Created with matplotlib (http://matplotlib.org/) -->
<svg height="673pt" version="1.1" viewBox="0 0 737 673" width="737pt" xmlns="http://www.w3.org/2000/svg" xmlns:xlink="http://www.w3.org/1999/xlink">
 <defs>
  <style type="text/css">
*{stroke-linecap:butt;stroke-linejoin:round;stroke-miterlimit:100000;}
  </style>
 </defs>
 <g id="figure_1">
  <g id="patch_1">
   <path d="M 0 673.696094 
L 737.778125 673.696094 
L 737.778125 0 
L 0 0 
z
" style="fill:#ffffff;"/>
  </g>
  <g id="axes_1">
   <g id="patch_2">
    <path d="M 75.378125 583.2 
L 730.578125 583.2 
L 730.578125 7.2 
L 75.378125 7.2 
z
" style="fill:#ffffff;"/>
   </g>
   <g id="matplotlib.axis_1">
    <g id="xtick_1">
     <g id="line2d_1">
      <defs>
       <path d="M 0 0 
L 0 0 
" id="m6542884ab1" style="stroke:#262626;stroke-width:0.8;"/>
      </defs>
      <g>
       <use style="fill:#262626;stroke:#262626;stroke-width:0.8;" x="239.178125" xlink:href="#m6542884ab1" y="583.2"/>
      </g>
     </g>
     <g id="text_1">
      <!-- Leader/Follower -->
      <defs>
       <path d="M 20.3125 0 
L 6.59375 0 
L 6.59375 51.859375 
L 19.34375 51.859375 
L 19.34375 44.484375 
Q 22.609375 49.703125 25.21875 51.359375 
Q 27.828125 53.03125 31.15625 53.03125 
Q 35.84375 53.03125 40.1875 50.4375 
L 35.9375 38.484375 
Q 32.46875 40.71875 29.5 40.71875 
Q 26.609375 40.71875 24.609375 39.125 
Q 22.609375 37.546875 21.453125 33.390625 
Q 20.3125 29.25 20.3125 16.015625 
z
" id="Arial-BoldMT-72"/>
       <path d="M 54.734375 0 
L 42 0 
L 42 7.625 
Q 38.8125 3.171875 34.484375 1 
Q 30.171875 -1.171875 25.78125 -1.171875 
Q 16.84375 -1.171875 10.46875 6.03125 
Q 4.109375 13.234375 4.109375 26.125 
Q 4.109375 39.3125 10.296875 46.171875 
Q 16.5 53.03125 25.984375 53.03125 
Q 34.671875 53.03125 41.015625 45.796875 
L 41.015625 71.578125 
L 54.734375 71.578125 
z
M 18.109375 27.046875 
Q 18.109375 18.75 20.40625 15.046875 
Q 23.734375 9.671875 29.6875 9.671875 
Q 34.421875 9.671875 37.734375 13.6875 
Q 41.0625 17.71875 41.0625 25.734375 
Q 41.0625 34.671875 37.84375 38.59375 
Q 34.625 42.53125 29.59375 42.53125 
Q 24.703125 42.53125 21.40625 38.640625 
Q 18.109375 34.765625 18.109375 27.046875 
" id="Arial-BoldMT-64"/>
       <path d="M 37.203125 16.5 
L 50.875 14.203125 
Q 48.25 6.6875 42.546875 2.75 
Q 36.859375 -1.171875 28.328125 -1.171875 
Q 14.796875 -1.171875 8.296875 7.671875 
Q 3.171875 14.75 3.171875 25.53125 
Q 3.171875 38.421875 9.90625 45.71875 
Q 16.65625 53.03125 26.953125 53.03125 
Q 38.53125 53.03125 45.21875 45.390625 
Q 51.90625 37.75 51.609375 21.96875 
L 17.234375 21.96875 
Q 17.390625 15.875 20.5625 12.46875 
Q 23.734375 9.078125 28.46875 9.078125 
Q 31.6875 9.078125 33.875 10.828125 
Q 36.078125 12.59375 37.203125 16.5 
M 37.984375 30.375 
Q 37.84375 36.328125 34.90625 39.421875 
Q 31.984375 42.53125 27.78125 42.53125 
Q 23.296875 42.53125 20.359375 39.265625 
Q 17.4375 35.984375 17.484375 30.375 
z
" id="Arial-BoldMT-65"/>
       <path d="M 17.4375 36.03125 
L 4.984375 38.28125 
Q 7.078125 45.796875 12.203125 49.40625 
Q 17.328125 53.03125 27.4375 53.03125 
Q 36.625 53.03125 41.109375 50.859375 
Q 45.609375 48.6875 47.4375 45.34375 
Q 49.265625 42 49.265625 33.0625 
L 49.125 17.046875 
Q 49.125 10.203125 49.78125 6.953125 
Q 50.4375 3.71875 52.25 0 
L 38.671875 0 
Q 38.140625 1.375 37.359375 4.046875 
Q 37.015625 5.28125 36.859375 5.671875 
Q 33.34375 2.25 29.34375 0.53125 
Q 25.34375 -1.171875 20.796875 -1.171875 
Q 12.796875 -1.171875 8.171875 3.171875 
Q 3.5625 7.515625 3.5625 14.15625 
Q 3.5625 18.5625 5.65625 22 
Q 7.765625 25.4375 11.546875 27.265625 
Q 15.328125 29.109375 22.46875 30.46875 
Q 32.078125 32.28125 35.796875 33.84375 
L 35.796875 35.203125 
Q 35.796875 39.15625 33.84375 40.84375 
Q 31.890625 42.53125 26.46875 42.53125 
Q 22.796875 42.53125 20.75 41.09375 
Q 18.703125 39.65625 17.4375 36.03125 
M 35.796875 24.90625 
Q 33.15625 24.03125 27.4375 22.796875 
Q 21.734375 21.578125 19.96875 20.40625 
Q 17.28125 18.5 17.28125 15.578125 
Q 17.28125 12.703125 19.421875 10.59375 
Q 21.578125 8.5 24.90625 8.5 
Q 28.609375 8.5 31.984375 10.9375 
Q 34.46875 12.796875 35.25 15.484375 
Q 35.796875 17.234375 35.796875 22.171875 
z
" id="Arial-BoldMT-61"/>
       <path d="M 7.671875 0 
L 7.671875 71 
L 22.125 71 
L 22.125 12.0625 
L 58.0625 12.0625 
L 58.0625 0 
z
" id="Arial-BoldMT-4c"/>
       <path d="M 7.171875 0 
L 7.171875 71.578125 
L 20.90625 71.578125 
L 20.90625 0 
z
" id="Arial-BoldMT-6c"/>
       <path d="M 4 26.65625 
Q 4 33.5 7.375 39.890625 
Q 10.75 46.296875 16.921875 49.65625 
Q 23.09375 53.03125 30.71875 53.03125 
Q 42.484375 53.03125 50 45.390625 
Q 57.515625 37.75 57.515625 26.078125 
Q 57.515625 14.3125 49.921875 6.5625 
Q 42.328125 -1.171875 30.8125 -1.171875 
Q 23.6875 -1.171875 17.21875 2.046875 
Q 10.75 5.28125 7.375 11.5 
Q 4 17.71875 4 26.65625 
M 18.0625 25.921875 
Q 18.0625 18.21875 21.71875 14.109375 
Q 25.390625 10.015625 30.765625 10.015625 
Q 36.140625 10.015625 39.765625 14.109375 
Q 43.40625 18.21875 43.40625 26.03125 
Q 43.40625 33.640625 39.765625 37.734375 
Q 36.140625 41.84375 30.765625 41.84375 
Q 25.390625 41.84375 21.71875 37.734375 
Q 18.0625 33.640625 18.0625 25.921875 
" id="Arial-BoldMT-6f"/>
       <path d="M 16.84375 0 
L 0.4375 51.859375 
L 13.765625 51.859375 
L 23.484375 17.875 
L 32.421875 51.859375 
L 45.65625 51.859375 
L 54.296875 17.875 
L 64.203125 51.859375 
L 77.734375 51.859375 
L 61.078125 0 
L 47.90625 0 
L 38.96875 33.34375 
L 30.171875 0 
z
" id="Arial-BoldMT-77"/>
       <path d="M -0.140625 -1.21875 
L 17.578125 72.796875 
L 27.875 72.796875 
L 9.96875 -1.21875 
z
" id="Arial-BoldMT-2f"/>
       <path d="M 7.375 0 
L 7.375 71.578125 
L 56.453125 71.578125 
L 56.453125 59.46875 
L 21.828125 59.46875 
L 21.828125 42.53125 
L 51.703125 42.53125 
L 51.703125 30.421875 
L 21.828125 30.421875 
L 21.828125 0 
z
" id="Arial-BoldMT-46"/>
      </defs>
      <g style="fill:#262626;" transform="translate(143.328515625 606.36640625)scale(0.25 -0.25)">
       <use xlink:href="#Arial-BoldMT-4c"/>
       <use x="61.083984375" xlink:href="#Arial-BoldMT-65"/>
       <use x="116.69921875" xlink:href="#Arial-BoldMT-61"/>
       <use x="172.314453125" xlink:href="#Arial-BoldMT-64"/>
       <use x="233.3984375" xlink:href="#Arial-BoldMT-65"/>
       <use x="289.013671875" xlink:href="#Arial-BoldMT-72"/>
       <use x="327.9296875" xlink:href="#Arial-BoldMT-2f"/>
       <use x="355.712890625" xlink:href="#Arial-BoldMT-46"/>
       <use x="416.796875" xlink:href="#Arial-BoldMT-6f"/>
       <use x="477.880859375" xlink:href="#Arial-BoldMT-6c"/>
       <use x="505.6640625" xlink:href="#Arial-BoldMT-6c"/>
       <use x="533.447265625" xlink:href="#Arial-BoldMT-6f"/>
       <use x="594.53125" xlink:href="#Arial-BoldMT-77"/>
       <use x="672.314453125" xlink:href="#Arial-BoldMT-65"/>
       <use x="727.9296875" xlink:href="#Arial-BoldMT-72"/>
      </g>
      <!-- strategy -->
      <defs>
       <path d="M 2.34375 14.796875 
L 16.109375 16.890625 
Q 17 12.890625 19.671875 10.8125 
Q 22.359375 8.734375 27.203125 8.734375 
Q 32.515625 8.734375 35.203125 10.6875 
Q 37.015625 12.0625 37.015625 14.359375 
Q 37.015625 15.921875 36.03125 16.9375 
Q 35.015625 17.921875 31.453125 18.75 
Q 14.84375 22.40625 10.40625 25.4375 
Q 4.25 29.640625 4.25 37.109375 
Q 4.25 43.84375 9.5625 48.4375 
Q 14.890625 53.03125 26.078125 53.03125 
Q 36.71875 53.03125 41.890625 49.5625 
Q 47.078125 46.09375 49.03125 39.3125 
L 36.078125 36.921875 
Q 35.25 39.9375 32.921875 41.546875 
Q 30.609375 43.171875 26.3125 43.171875 
Q 20.90625 43.171875 18.5625 41.65625 
Q 17 40.578125 17 38.875 
Q 17 37.40625 18.359375 36.375 
Q 20.21875 35.015625 31.171875 32.515625 
Q 42.140625 30.03125 46.484375 26.421875 
Q 50.78125 22.75 50.78125 16.21875 
Q 50.78125 9.078125 44.828125 3.953125 
Q 38.875 -1.171875 27.203125 -1.171875 
Q 16.609375 -1.171875 10.421875 3.125 
Q 4.25 7.421875 2.34375 14.796875 
" id="Arial-BoldMT-73"/>
       <path d="M 0.6875 51.859375 
L 15.28125 51.859375 
L 27.6875 15.046875 
L 39.796875 51.859375 
L 54 51.859375 
L 35.6875 1.953125 
L 32.421875 -7.078125 
Q 30.609375 -11.625 28.96875 -14.015625 
Q 27.34375 -16.40625 25.21875 -17.890625 
Q 23.09375 -19.390625 19.984375 -20.21875 
Q 16.890625 -21.046875 12.984375 -21.046875 
Q 9.03125 -21.046875 5.21875 -20.21875 
L 4 -9.46875 
Q 7.234375 -10.109375 9.8125 -10.109375 
Q 14.59375 -10.109375 16.890625 -7.296875 
Q 19.1875 -4.5 20.40625 -0.140625 
z
" id="Arial-BoldMT-79"/>
       <path d="M 5.90625 -3.421875 
L 21.578125 -5.328125 
Q 21.96875 -8.0625 23.390625 -9.078125 
Q 25.34375 -10.546875 29.546875 -10.546875 
Q 34.90625 -10.546875 37.59375 -8.9375 
Q 39.40625 -7.859375 40.328125 -5.46875 
Q 40.96875 -3.765625 40.96875 0.828125 
L 40.96875 8.40625 
Q 34.8125 0 25.4375 0 
Q 14.984375 0 8.890625 8.84375 
Q 4.109375 15.828125 4.109375 26.21875 
Q 4.109375 39.265625 10.375 46.140625 
Q 16.65625 53.03125 25.984375 53.03125 
Q 35.59375 53.03125 41.84375 44.578125 
L 41.84375 51.859375 
L 54.6875 51.859375 
L 54.6875 5.328125 
Q 54.6875 -3.859375 53.171875 -8.390625 
Q 51.65625 -12.9375 48.921875 -15.515625 
Q 46.1875 -18.109375 41.625 -19.578125 
Q 37.0625 -21.046875 30.078125 -21.046875 
Q 16.890625 -21.046875 11.375 -16.53125 
Q 5.859375 -12.015625 5.859375 -5.078125 
Q 5.859375 -4.390625 5.90625 -3.421875 
M 18.171875 27 
Q 18.171875 18.75 21.359375 14.90625 
Q 24.5625 11.078125 29.25 11.078125 
Q 34.28125 11.078125 37.75 15.015625 
Q 41.21875 18.953125 41.21875 26.65625 
Q 41.21875 34.71875 37.890625 38.625 
Q 34.578125 42.53125 29.5 42.53125 
Q 24.5625 42.53125 21.359375 38.6875 
Q 18.171875 34.859375 18.171875 27 
" id="Arial-BoldMT-67"/>
       <path d="M 30.953125 51.859375 
L 30.953125 40.921875 
L 21.578125 40.921875 
L 21.578125 20.015625 
Q 21.578125 13.671875 21.84375 12.625 
Q 22.125 11.578125 23.078125 10.890625 
Q 24.03125 10.203125 25.390625 10.203125 
Q 27.296875 10.203125 30.90625 11.53125 
L 32.078125 0.875 
Q 27.296875 -1.171875 21.234375 -1.171875 
Q 17.53125 -1.171875 14.546875 0.0625 
Q 11.578125 1.3125 10.1875 3.296875 
Q 8.796875 5.28125 8.25 8.640625 
Q 7.8125 11.03125 7.8125 18.3125 
L 7.8125 40.921875 
L 1.515625 40.921875 
L 1.515625 51.859375 
L 7.8125 51.859375 
L 7.8125 62.15625 
L 21.578125 70.171875 
L 21.578125 51.859375 
z
" id="Arial-BoldMT-74"/>
      </defs>
      <g style="fill:#262626;" transform="translate(190.54921875 632.7734375)scale(0.25 -0.25)">
       <use xlink:href="#Arial-BoldMT-73"/>
       <use x="55.615234375" xlink:href="#Arial-BoldMT-74"/>
       <use x="88.916015625" xlink:href="#Arial-BoldMT-72"/>
       <use x="127.83203125" xlink:href="#Arial-BoldMT-61"/>
       <use x="183.447265625" xlink:href="#Arial-BoldMT-74"/>
       <use x="216.748046875" xlink:href="#Arial-BoldMT-65"/>
       <use x="272.36328125" xlink:href="#Arial-BoldMT-67"/>
       <use x="333.447265625" xlink:href="#Arial-BoldMT-79"/>
      </g>
     </g>
    </g>
    <g id="xtick_2">
     <g id="line2d_2">
      <g>
       <use style="fill:#262626;stroke:#262626;stroke-width:0.8;" x="566.778125" xlink:href="#m6542884ab1" y="583.2"/>
      </g>
     </g>
     <g id="text_2">
      <!-- Turner -->
      <defs>
       <path d="M 23.390625 0 
L 23.390625 59.46875 
L 2.15625 59.46875 
L 2.15625 71.578125 
L 59.03125 71.578125 
L 59.03125 59.46875 
L 37.84375 59.46875 
L 37.84375 0 
z
" id="Arial-BoldMT-54"/>
       <path d="M 54.34375 0 
L 40.625 0 
L 40.625 26.46875 
Q 40.625 34.859375 39.75 37.328125 
Q 38.875 39.796875 36.890625 41.15625 
Q 34.90625 42.53125 32.125 42.53125 
Q 28.5625 42.53125 25.734375 40.578125 
Q 22.90625 38.625 21.84375 35.390625 
Q 20.796875 32.171875 20.796875 23.484375 
L 20.796875 0 
L 7.078125 0 
L 7.078125 51.859375 
L 19.828125 51.859375 
L 19.828125 44.234375 
Q 26.609375 53.03125 36.921875 53.03125 
Q 41.453125 53.03125 45.203125 51.390625 
Q 48.96875 49.75 50.890625 47.203125 
Q 52.828125 44.671875 53.578125 41.453125 
Q 54.34375 38.234375 54.34375 32.234375 
z
" id="Arial-BoldMT-6e"/>
       <path d="M 41.3125 0 
L 41.3125 7.765625 
Q 38.484375 3.609375 33.859375 1.21875 
Q 29.25 -1.171875 24.125 -1.171875 
Q 18.890625 -1.171875 14.734375 1.125 
Q 10.59375 3.421875 8.734375 7.5625 
Q 6.890625 11.71875 6.890625 19.046875 
L 6.890625 51.859375 
L 20.609375 51.859375 
L 20.609375 28.03125 
Q 20.609375 17.09375 21.359375 14.625 
Q 22.125 12.15625 24.125 10.71875 
Q 26.125 9.28125 29.203125 9.28125 
Q 32.71875 9.28125 35.5 11.203125 
Q 38.28125 13.140625 39.296875 15.984375 
Q 40.328125 18.84375 40.328125 29.984375 
L 40.328125 51.859375 
L 54.046875 51.859375 
L 54.046875 0 
z
" id="Arial-BoldMT-75"/>
      </defs>
      <g style="fill:#262626;" transform="translate(527.205859375 606.36640625)scale(0.25 -0.25)">
       <use xlink:href="#Arial-BoldMT-54"/>
       <use x="60.974609375" xlink:href="#Arial-BoldMT-75"/>
       <use x="122.05859375" xlink:href="#Arial-BoldMT-72"/>
       <use x="160.974609375" xlink:href="#Arial-BoldMT-6e"/>
       <use x="222.05859375" xlink:href="#Arial-BoldMT-65"/>
       <use x="277.673828125" xlink:href="#Arial-BoldMT-72"/>
      </g>
      <!-- strategy -->
      <g style="fill:#262626;" transform="translate(518.14921875 632.7734375)scale(0.25 -0.25)">
       <use xlink:href="#Arial-BoldMT-73"/>
       <use x="55.615234375" xlink:href="#Arial-BoldMT-74"/>
       <use x="88.916015625" xlink:href="#Arial-BoldMT-72"/>
       <use x="127.83203125" xlink:href="#Arial-BoldMT-61"/>
       <use x="183.447265625" xlink:href="#Arial-BoldMT-74"/>
       <use x="216.748046875" xlink:href="#Arial-BoldMT-65"/>
       <use x="272.36328125" xlink:href="#Arial-BoldMT-67"/>
       <use x="333.447265625" xlink:href="#Arial-BoldMT-79"/>
      </g>
     </g>
    </g>
    <g id="text_3">
     <!-- Strategy -->
     <defs>
      <path d="M 3.609375 23.296875 
L 17.671875 24.65625 
Q 18.953125 17.578125 22.828125 14.25 
Q 26.703125 10.9375 33.296875 10.9375 
Q 40.28125 10.9375 43.8125 13.890625 
Q 47.359375 16.84375 47.359375 20.796875 
Q 47.359375 23.34375 45.875 25.125 
Q 44.390625 26.90625 40.671875 28.21875 
Q 38.140625 29.109375 29.109375 31.34375 
Q 17.484375 34.234375 12.796875 38.421875 
Q 6.203125 44.34375 6.203125 52.828125 
Q 6.203125 58.296875 9.296875 63.0625 
Q 12.40625 67.828125 18.234375 70.3125 
Q 24.078125 72.796875 32.328125 72.796875 
Q 45.796875 72.796875 52.609375 66.890625 
Q 59.421875 60.984375 59.765625 51.125 
L 45.3125 50.484375 
Q 44.390625 56 41.328125 58.421875 
Q 38.28125 60.84375 32.171875 60.84375 
Q 25.875 60.84375 22.3125 58.25 
Q 20.015625 56.59375 20.015625 53.8125 
Q 20.015625 51.265625 22.171875 49.46875 
Q 24.90625 47.171875 35.453125 44.671875 
Q 46 42.1875 51.046875 39.515625 
Q 56.109375 36.859375 58.953125 32.25 
Q 61.8125 27.640625 61.8125 20.84375 
Q 61.8125 14.703125 58.390625 9.328125 
Q 54.984375 3.953125 48.734375 1.34375 
Q 42.484375 -1.265625 33.15625 -1.265625 
Q 19.578125 -1.265625 12.296875 5 
Q 5.03125 11.28125 3.609375 23.296875 
" id="Arial-BoldMT-53"/>
     </defs>
     <g style="fill:#262626;" transform="translate(352.9625 661.234375)scale(0.25 -0.25)">
      <use xlink:href="#Arial-BoldMT-53"/>
      <use x="66.69921875" xlink:href="#Arial-BoldMT-74"/>
      <use x="100.0" xlink:href="#Arial-BoldMT-72"/>
      <use x="138.916015625" xlink:href="#Arial-BoldMT-61"/>
      <use x="194.53125" xlink:href="#Arial-BoldMT-74"/>
      <use x="227.83203125" xlink:href="#Arial-BoldMT-65"/>
      <use x="283.447265625" xlink:href="#Arial-BoldMT-67"/>
      <use x="344.53125" xlink:href="#Arial-BoldMT-79"/>
     </g>
    </g>
   </g>
   <g id="matplotlib.axis_2">
    <g id="ytick_1">
     <g id="line2d_3">
      <path clip-path="url(#p508959b301)" d="M 75.378125 535.2 
L 730.578125 535.2 
" style="fill:none;stroke:#e6e6e6;stroke-linecap:round;"/>
     </g>
     <g id="line2d_4">
      <g>
       <use style="fill:#262626;stroke:#262626;stroke-width:0.8;" x="75.378125" xlink:href="#m6542884ab1" y="535.2"/>
      </g>
     </g>
     <g id="text_4">
      <!-- 0.0 -->
      <defs>
       <path d="M 7.171875 0 
L 7.171875 13.71875 
L 20.90625 13.71875 
L 20.90625 0 
z
" id="Arial-BoldMT-2e"/>
       <path d="M 27.4375 71.875 
Q 37.84375 71.875 43.703125 64.453125 
Q 50.6875 55.671875 50.6875 35.296875 
Q 50.6875 14.984375 43.65625 6.109375 
Q 37.84375 -1.21875 27.4375 -1.21875 
Q 17 -1.21875 10.59375 6.8125 
Q 4.203125 14.84375 4.203125 35.453125 
Q 4.203125 55.671875 11.234375 64.546875 
Q 17.046875 71.875 27.4375 71.875 
M 27.4375 60.5 
Q 24.953125 60.5 23 58.90625 
Q 21.046875 57.328125 19.96875 53.21875 
Q 18.5625 47.90625 18.5625 35.296875 
Q 18.5625 22.703125 19.828125 17.984375 
Q 21.09375 13.28125 23.015625 11.71875 
Q 24.953125 10.15625 27.4375 10.15625 
Q 29.9375 10.15625 31.890625 11.734375 
Q 33.84375 13.328125 34.90625 17.4375 
Q 36.328125 22.703125 36.328125 35.296875 
Q 36.328125 47.90625 35.0625 52.609375 
Q 33.796875 57.328125 31.859375 58.90625 
Q 29.9375 60.5 27.4375 60.5 
" id="Arial-BoldMT-30"/>
      </defs>
      <g style="fill:#262626;" transform="translate(35.028125 541.68046875)scale(0.25 -0.25)">
       <use xlink:href="#Arial-BoldMT-30"/>
       <use x="55.615234375" xlink:href="#Arial-BoldMT-2e"/>
       <use x="83.3984375" xlink:href="#Arial-BoldMT-30"/>
      </g>
     </g>
    </g>
    <g id="ytick_2">
     <g id="line2d_5">
      <path clip-path="url(#p508959b301)" d="M 75.378125 439.2 
L 730.578125 439.2 
" style="fill:none;stroke:#e6e6e6;stroke-linecap:round;"/>
     </g>
     <g id="line2d_6">
      <g>
       <use style="fill:#262626;stroke:#262626;stroke-width:0.8;" x="75.378125" xlink:href="#m6542884ab1" y="439.2"/>
      </g>
     </g>
     <g id="text_5">
      <!-- 0.2 -->
      <defs>
       <path d="M 50.59375 12.75 
L 50.59375 0 
L 2.484375 0 
Q 3.265625 7.234375 7.171875 13.703125 
Q 11.078125 20.171875 22.609375 30.859375 
Q 31.890625 39.5 33.984375 42.578125 
Q 36.8125 46.828125 36.8125 50.984375 
Q 36.8125 55.5625 34.34375 58.03125 
Q 31.890625 60.5 27.546875 60.5 
Q 23.25 60.5 20.703125 57.90625 
Q 18.171875 55.328125 17.78125 49.3125 
L 4.109375 50.6875 
Q 5.328125 62.015625 11.765625 66.9375 
Q 18.21875 71.875 27.875 71.875 
Q 38.484375 71.875 44.53125 66.15625 
Q 50.59375 60.453125 50.59375 51.953125 
Q 50.59375 47.125 48.859375 42.75 
Q 47.125 38.375 43.359375 33.59375 
Q 40.875 30.421875 34.375 24.453125 
Q 27.875 18.5 26.140625 16.546875 
Q 24.421875 14.59375 23.34375 12.75 
z
" id="Arial-BoldMT-32"/>
      </defs>
      <g style="fill:#262626;" transform="translate(35.028125 445.68046875)scale(0.25 -0.25)">
       <use xlink:href="#Arial-BoldMT-30"/>
       <use x="55.615234375" xlink:href="#Arial-BoldMT-2e"/>
       <use x="83.3984375" xlink:href="#Arial-BoldMT-32"/>
      </g>
     </g>
    </g>
    <g id="ytick_3">
     <g id="line2d_7">
      <path clip-path="url(#p508959b301)" d="M 75.378125 343.2 
L 730.578125 343.2 
" style="fill:none;stroke:#e6e6e6;stroke-linecap:round;"/>
     </g>
     <g id="line2d_8">
      <g>
       <use style="fill:#262626;stroke:#262626;stroke-width:0.8;" x="75.378125" xlink:href="#m6542884ab1" y="343.2"/>
      </g>
     </g>
     <g id="text_6">
      <!-- 0.4 -->
      <defs>
       <path d="M 31.15625 0 
L 31.15625 14.40625 
L 1.859375 14.40625 
L 1.859375 26.421875 
L 32.90625 71.875 
L 44.4375 71.875 
L 44.4375 26.46875 
L 53.328125 26.46875 
L 53.328125 14.40625 
L 44.4375 14.40625 
L 44.4375 0 
z
M 31.15625 26.46875 
L 31.15625 50.921875 
L 14.703125 26.46875 
z
" id="Arial-BoldMT-34"/>
      </defs>
      <g style="fill:#262626;" transform="translate(35.028125 349.68046875)scale(0.25 -0.25)">
       <use xlink:href="#Arial-BoldMT-30"/>
       <use x="55.615234375" xlink:href="#Arial-BoldMT-2e"/>
       <use x="83.3984375" xlink:href="#Arial-BoldMT-34"/>
      </g>
     </g>
    </g>
    <g id="ytick_4">
     <g id="line2d_9">
      <path clip-path="url(#p508959b301)" d="M 75.378125 247.2 
L 730.578125 247.2 
" style="fill:none;stroke:#e6e6e6;stroke-linecap:round;"/>
     </g>
     <g id="line2d_10">
      <g>
       <use style="fill:#262626;stroke:#262626;stroke-width:0.8;" x="75.378125" xlink:href="#m6542884ab1" y="247.2"/>
      </g>
     </g>
     <g id="text_7">
      <!-- 0.6 -->
      <defs>
       <path d="M 50.734375 54.046875 
L 37.453125 52.59375 
Q 36.96875 56.6875 34.90625 58.640625 
Q 32.859375 60.59375 29.59375 60.59375 
Q 25.25 60.59375 22.234375 56.6875 
Q 19.234375 52.78125 18.453125 40.4375 
Q 23.578125 46.484375 31.203125 46.484375 
Q 39.796875 46.484375 45.921875 39.9375 
Q 52.046875 33.40625 52.046875 23.046875 
Q 52.046875 12.0625 45.59375 5.421875 
Q 39.15625 -1.21875 29.046875 -1.21875 
Q 18.21875 -1.21875 11.234375 7.203125 
Q 4.25 15.625 4.25 34.8125 
Q 4.25 54.5 11.515625 63.1875 
Q 18.796875 71.875 30.421875 71.875 
Q 38.578125 71.875 43.921875 67.3125 
Q 49.265625 62.75 50.734375 54.046875 
M 19.625 24.125 
Q 19.625 17.4375 22.703125 13.796875 
Q 25.78125 10.15625 29.734375 10.15625 
Q 33.546875 10.15625 36.078125 13.125 
Q 38.625 16.109375 38.625 22.90625 
Q 38.625 29.890625 35.890625 33.125 
Q 33.15625 36.375 29.046875 36.375 
Q 25.09375 36.375 22.359375 33.265625 
Q 19.625 30.171875 19.625 24.125 
" id="Arial-BoldMT-36"/>
      </defs>
      <g style="fill:#262626;" transform="translate(35.028125 253.68046875)scale(0.25 -0.25)">
       <use xlink:href="#Arial-BoldMT-30"/>
       <use x="55.615234375" xlink:href="#Arial-BoldMT-2e"/>
       <use x="83.3984375" xlink:href="#Arial-BoldMT-36"/>
      </g>
     </g>
    </g>
    <g id="ytick_5">
     <g id="line2d_11">
      <path clip-path="url(#p508959b301)" d="M 75.378125 151.2 
L 730.578125 151.2 
" style="fill:none;stroke:#e6e6e6;stroke-linecap:round;"/>
     </g>
     <g id="line2d_12">
      <g>
       <use style="fill:#262626;stroke:#262626;stroke-width:0.8;" x="75.378125" xlink:href="#m6542884ab1" y="151.2"/>
      </g>
     </g>
     <g id="text_8">
      <!-- 0.8 -->
      <defs>
       <path d="M 16.015625 38.625 
Q 10.6875 40.875 8.265625 44.796875 
Q 5.859375 48.734375 5.859375 53.421875 
Q 5.859375 61.421875 11.453125 66.640625 
Q 17.046875 71.875 27.34375 71.875 
Q 37.546875 71.875 43.1875 66.640625 
Q 48.828125 61.421875 48.828125 53.421875 
Q 48.828125 48.4375 46.234375 44.546875 
Q 43.65625 40.671875 38.96875 38.625 
Q 44.921875 36.234375 48.015625 31.640625 
Q 51.125 27.046875 51.125 21.046875 
Q 51.125 11.140625 44.796875 4.9375 
Q 38.484375 -1.265625 27.984375 -1.265625 
Q 18.21875 -1.265625 11.71875 3.859375 
Q 4.046875 9.90625 4.046875 20.453125 
Q 4.046875 26.265625 6.921875 31.125 
Q 9.8125 35.984375 16.015625 38.625 
M 18.84375 52.4375 
Q 18.84375 48.34375 21.15625 46.046875 
Q 23.484375 43.75 27.34375 43.75 
Q 31.25 43.75 33.59375 46.0625 
Q 35.9375 48.390625 35.9375 52.484375 
Q 35.9375 56.34375 33.609375 58.65625 
Q 31.296875 60.984375 27.484375 60.984375 
Q 23.53125 60.984375 21.1875 58.640625 
Q 18.84375 56.296875 18.84375 52.4375 
M 17.578125 21.78125 
Q 17.578125 16.109375 20.484375 12.9375 
Q 23.390625 9.765625 27.734375 9.765625 
Q 31.984375 9.765625 34.765625 12.8125 
Q 37.546875 15.875 37.546875 21.625 
Q 37.546875 26.65625 34.71875 29.703125 
Q 31.890625 32.765625 27.546875 32.765625 
Q 22.515625 32.765625 20.046875 29.296875 
Q 17.578125 25.828125 17.578125 21.78125 
" id="Arial-BoldMT-38"/>
      </defs>
      <g style="fill:#262626;" transform="translate(35.028125 157.68046875)scale(0.25 -0.25)">
       <use xlink:href="#Arial-BoldMT-30"/>
       <use x="55.615234375" xlink:href="#Arial-BoldMT-2e"/>
       <use x="83.3984375" xlink:href="#Arial-BoldMT-38"/>
      </g>
     </g>
    </g>
    <g id="ytick_6">
     <g id="line2d_13">
      <path clip-path="url(#p508959b301)" d="M 75.378125 55.2 
L 730.578125 55.2 
" style="fill:none;stroke:#e6e6e6;stroke-linecap:round;"/>
     </g>
     <g id="line2d_14">
      <g>
       <use style="fill:#262626;stroke:#262626;stroke-width:0.8;" x="75.378125" xlink:href="#m6542884ab1" y="55.2"/>
      </g>
     </g>
     <g id="text_9">
      <!-- 1.0 -->
      <defs>
       <path d="M 39.359375 0 
L 25.640625 0 
L 25.640625 51.703125 
Q 18.109375 44.671875 7.90625 41.3125 
L 7.90625 53.765625 
Q 13.28125 55.515625 19.578125 60.421875 
Q 25.875 65.328125 28.21875 71.875 
L 39.359375 71.875 
z
" id="Arial-BoldMT-31"/>
      </defs>
      <g style="fill:#262626;" transform="translate(35.028125 61.68046875)scale(0.25 -0.25)">
       <use xlink:href="#Arial-BoldMT-31"/>
       <use x="55.615234375" xlink:href="#Arial-BoldMT-2e"/>
       <use x="83.3984375" xlink:href="#Arial-BoldMT-30"/>
      </g>
     </g>
    </g>
    <g id="text_10">
     <!-- Leadership ratio -->
     <defs>
      <path d="M 20.84375 71.578125 
L 20.84375 45.265625 
Q 27.484375 53.03125 36.71875 53.03125 
Q 41.453125 53.03125 45.265625 51.265625 
Q 49.078125 49.515625 51 46.78125 
Q 52.9375 44.046875 53.640625 40.71875 
Q 54.34375 37.40625 54.34375 30.421875 
L 54.34375 0 
L 40.625 0 
L 40.625 27.390625 
Q 40.625 35.546875 39.84375 37.734375 
Q 39.0625 39.9375 37.078125 41.234375 
Q 35.109375 42.53125 32.125 42.53125 
Q 28.71875 42.53125 26.03125 40.859375 
Q 23.34375 39.203125 22.09375 35.859375 
Q 20.84375 32.515625 20.84375 25.984375 
L 20.84375 0 
L 7.125 0 
L 7.125 71.578125 
z
" id="Arial-BoldMT-68"/>
      <path d="M 7.171875 58.890625 
L 7.171875 71.578125 
L 20.90625 71.578125 
L 20.90625 58.890625 
z
M 7.171875 0 
L 7.171875 51.859375 
L 20.90625 51.859375 
L 20.90625 0 
z
" id="Arial-BoldMT-69"/>
      <path d="M 6.78125 51.859375 
L 19.578125 51.859375 
L 19.578125 44.234375 
Q 22.078125 48.140625 26.3125 50.578125 
Q 30.5625 53.03125 35.75 53.03125 
Q 44.78125 53.03125 51.078125 45.953125 
Q 57.375 38.875 57.375 26.21875 
Q 57.375 13.234375 51.015625 6.03125 
Q 44.671875 -1.171875 35.640625 -1.171875 
Q 31.34375 -1.171875 27.84375 0.53125 
Q 24.359375 2.25 20.515625 6.390625 
L 20.515625 -19.734375 
L 6.78125 -19.734375 
z
M 20.359375 26.8125 
Q 20.359375 18.0625 23.828125 13.890625 
Q 27.296875 9.71875 32.28125 9.71875 
Q 37.0625 9.71875 40.234375 13.546875 
Q 43.40625 17.390625 43.40625 26.125 
Q 43.40625 34.28125 40.125 38.234375 
Q 36.859375 42.1875 32.03125 42.1875 
Q 27 42.1875 23.671875 38.296875 
Q 20.359375 34.421875 20.359375 26.8125 
" id="Arial-BoldMT-70"/>
      <path id="Arial-BoldMT-20"/>
     </defs>
     <g style="fill:#262626;" transform="translate(25.09453125 392.440234375)rotate(-90.0)scale(0.25 -0.25)">
      <use xlink:href="#Arial-BoldMT-4c"/>
      <use x="61.083984375" xlink:href="#Arial-BoldMT-65"/>
      <use x="116.69921875" xlink:href="#Arial-BoldMT-61"/>
      <use x="172.314453125" xlink:href="#Arial-BoldMT-64"/>
      <use x="233.3984375" xlink:href="#Arial-BoldMT-65"/>
      <use x="289.013671875" xlink:href="#Arial-BoldMT-72"/>
      <use x="327.9296875" xlink:href="#Arial-BoldMT-73"/>
      <use x="383.544921875" xlink:href="#Arial-BoldMT-68"/>
      <use x="444.62890625" xlink:href="#Arial-BoldMT-69"/>
      <use x="472.412109375" xlink:href="#Arial-BoldMT-70"/>
      <use x="533.49609375" xlink:href="#Arial-BoldMT-20"/>
      <use x="561.279296875" xlink:href="#Arial-BoldMT-72"/>
      <use x="600.1953125" xlink:href="#Arial-BoldMT-61"/>
      <use x="655.810546875" xlink:href="#Arial-BoldMT-74"/>
      <use x="689.111328125" xlink:href="#Arial-BoldMT-69"/>
      <use x="716.89453125" xlink:href="#Arial-BoldMT-6f"/>
     </g>
    </g>
   </g>
   <g id="patch_3">
    <path clip-path="url(#p508959b301)" d="z
" style="fill:#f77189;"/>
   </g>
   <g id="patch_4">
    <path clip-path="url(#p508959b301)" d="M 214.608125 105.72624 
L 263.748125 105.72624 
z
" style="fill:#f77189;"/>
   </g>
   <g id="patch_5">
    <path clip-path="url(#p508959b301)" d="M 214.608125 105.72624 
L 263.748125 105.72624 
L 263.748125 55.2 
z
" style="fill:#f77189;"/>
   </g>
   <g id="patch_6">
    <path clip-path="url(#p508959b301)" d="M 214.608125 105.72624 
L 263.748125 105.72624 
L 263.748125 55.2 
L 214.608125 55.2 
z
" style="fill:#f77189;"/>
   </g>
   <g id="patch_7">
    <path clip-path="url(#p508959b301)" d="M 214.608125 105.72624 
L 263.748125 105.72624 
L 263.748125 55.2 
L 214.608125 55.2 
z
" style="fill:#f77189;"/>
   </g>
   <g id="patch_8">
    <path clip-path="url(#p508959b301)" d="z
" style="fill:#50b131;"/>
   </g>
   <g id="patch_9">
    <path clip-path="url(#p508959b301)" d="M 542.208125 468.77148 
L 591.348125 468.77148 
z
" style="fill:#50b131;"/>
   </g>
   <g id="patch_10">
    <path clip-path="url(#p508959b301)" d="M 542.208125 468.77148 
L 591.348125 468.77148 
L 591.348125 398.05728 
z
" style="fill:#50b131;"/>
   </g>
   <g id="patch_11">
    <path clip-path="url(#p508959b301)" d="M 542.208125 468.77148 
L 591.348125 468.77148 
L 591.348125 398.05728 
L 542.208125 398.05728 
z
" style="fill:#50b131;"/>
   </g>
   <g id="patch_12">
    <path clip-path="url(#p508959b301)" d="M 542.208125 468.77148 
L 591.348125 468.77148 
L 591.348125 398.05728 
L 542.208125 398.05728 
z
" style="fill:#50b131;"/>
   </g>
   <g id="line2d_15">
    <path clip-path="url(#p508959b301)" d="M 214.608125 105.72624 
L 263.748125 105.72624 
L 263.748125 55.2 
L 214.608125 55.2 
L 214.608125 105.72624 
" style="fill:none;"/>
   </g>
   <g id="line2d_16">
    <path clip-path="url(#p508959b301)" d="M 239.178125 105.72624 
L 239.178125 168.14112 
" style="fill:none;stroke:#f77189;stroke-dasharray:6.000000,6.000000;stroke-dashoffset:0.0;stroke-width:2.0;"/>
   </g>
   <g id="line2d_17">
    <path clip-path="url(#p508959b301)" d="M 239.178125 55.2 
L 239.178125 55.2 
" style="fill:none;stroke:#f77189;stroke-dasharray:6.000000,6.000000;stroke-dashoffset:0.0;stroke-width:2.0;"/>
   </g>
   <g id="line2d_18">
    <path clip-path="url(#p508959b301)" d="M 226.893125 168.14112 
L 251.463125 168.14112 
" style="fill:none;"/>
   </g>
   <g id="line2d_19">
    <path clip-path="url(#p508959b301)" d="M 226.893125 55.2 
L 251.463125 55.2 
" style="fill:none;"/>
   </g>
   <g id="line2d_20">
    <path clip-path="url(#p508959b301)" d="M 214.608125 55.2 
L 263.748125 55.2 
" style="fill:none;stroke:#000000;stroke-linecap:round;stroke-width:3.0;"/>
   </g>
   <g id="line2d_21"/>
   <g id="line2d_22">
    <path clip-path="url(#p508959b301)" d="M 542.208125 468.77148 
L 591.348125 468.77148 
L 591.348125 398.05728 
L 542.208125 398.05728 
L 542.208125 468.77148 
" style="fill:none;"/>
   </g>
   <g id="line2d_23">
    <path clip-path="url(#p508959b301)" d="M 566.778125 468.77148 
L 566.778125 535.2 
" style="fill:none;stroke:#50b131;stroke-dasharray:6.000000,6.000000;stroke-dashoffset:0.0;stroke-width:2.0;"/>
   </g>
   <g id="line2d_24">
    <path clip-path="url(#p508959b301)" d="M 566.778125 398.05728 
L 566.778125 311.19984 
" style="fill:none;stroke:#50b131;stroke-dasharray:6.000000,6.000000;stroke-dashoffset:0.0;stroke-width:2.0;"/>
   </g>
   <g id="line2d_25">
    <path clip-path="url(#p508959b301)" d="M 554.493125 535.2 
L 579.063125 535.2 
" style="fill:none;"/>
   </g>
   <g id="line2d_26">
    <path clip-path="url(#p508959b301)" d="M 554.493125 311.19984 
L 579.063125 311.19984 
" style="fill:none;"/>
   </g>
   <g id="line2d_27">
    <path clip-path="url(#p508959b301)" d="M 542.208125 444.84696 
L 591.348125 444.84696 
" style="fill:none;stroke:#000000;stroke-linecap:round;stroke-width:3.0;"/>
   </g>
   <g id="line2d_28"/>
   <g id="patch_13">
    <path d="M 75.378125 583.2 
L 730.578125 583.2 
" style="fill:none;stroke:#262626;stroke-linecap:square;stroke-linejoin:miter;stroke-width:1.25;"/>
   </g>
   <g id="patch_14">
    <path d="M 566.778125 53.196489 
L 566.778125 38.82 
L 239.178125 38.82 
L 239.178125 53.196489 
" style="fill:none;stroke:#000000;stroke-linecap:round;stroke-width:0.24;"/>
   </g>
   <g id="text_11">
    <!-- **** -->
    <defs>
     <path d="M 11.96875 38.671875 
L 4.59375 44.390625 
Q 8.109375 48.34375 11.921875 51.953125 
Q 13.421875 53.421875 13.8125 53.8125 
Q 12.59375 54 6.84375 55.421875 
Q 2.6875 56.453125 1.375 56.9375 
L 4.25 65.53125 
Q 10.640625 62.9375 15.671875 59.8125 
Q 14.5 67.78125 14.5 72.796875 
L 23.1875 72.796875 
Q 23.1875 69.234375 21.875 59.71875 
Q 22.859375 60.109375 26.078125 61.625 
Q 30.46875 63.625 34.1875 65.046875 
L 36.765625 56.203125 
Q 31.34375 54.984375 24.21875 53.8125 
L 30.078125 47.21875 
Q 31.84375 45.21875 32.859375 43.953125 
L 25.390625 39.015625 
L 18.796875 49.90625 
Q 15.828125 44.625 11.96875 38.671875 
" id="Arial-BoldMT-2a"/>
    </defs>
    <g style="fill:#262626;" transform="translate(391.3015625 32.68828125)scale(0.15 -0.15)">
     <use xlink:href="#Arial-BoldMT-2a"/>
     <use x="38.916015625" xlink:href="#Arial-BoldMT-2a"/>
     <use x="77.83203125" xlink:href="#Arial-BoldMT-2a"/>
     <use x="116.748046875" xlink:href="#Arial-BoldMT-2a"/>
    </g>
   </g>
  </g>
 </g>
 <defs>
  <clipPath id="p508959b301">
   <rect height="576.0" width="655.2" x="75.378125" y="7.2"/>
  </clipPath>
 </defs>
</svg>
