<?xml version="1.0" encoding="utf-8" standalone="no"?>
<!DOCTYPE svg PUBLIC "-//W3C//DTD SVG 1.1//EN"
  "http://www.w3.org/Graphics/SVG/1.1/DTD/svg11.dtd">
<!-- Created with matplotlib (http://matplotlib.org/) -->
<svg height="658pt" version="1.1" viewBox="0 0 738 658" width="738pt" xmlns="http://www.w3.org/2000/svg" xmlns:xlink="http://www.w3.org/1999/xlink">
 <defs>
  <style type="text/css">
*{stroke-linecap:butt;stroke-linejoin:round;stroke-miterlimit:100000;}
  </style>
 </defs>
 <g id="figure_1">
  <g id="patch_1">
   <path d="M 0 658.070312 
L 738.082812 658.070312 
L 738.082812 0 
L 0 0 
z
" style="fill:#ffffff;"/>
  </g>
  <g id="axes_1">
   <g id="patch_2">
    <path d="M 75.682813 594.614062 
L 730.882812 594.614062 
L 730.882812 18.614062 
L 75.682813 18.614062 
z
" style="fill:#ffffff;"/>
   </g>
   <g id="matplotlib.axis_1">
    <g id="xtick_1">
     <g id="line2d_1">
      <defs>
       <path d="M 0 0 
L 0 0 
" id="mdfb252ed54" style="stroke:#262626;stroke-width:0.8;"/>
      </defs>
      <g>
       <use style="fill:#262626;stroke:#262626;stroke-width:0.8;" x="184.8828125" xlink:href="#mdfb252ed54" y="594.6140625"/>
      </g>
     </g>
     <g id="text_1">
      <!-- 20 -->
      <defs>
       <path d="M 50.59375 12.75 
L 50.59375 0 
L 2.484375 0 
Q 3.265625 7.234375 7.171875 13.703125 
Q 11.078125 20.171875 22.609375 30.859375 
Q 31.890625 39.5 33.984375 42.578125 
Q 36.8125 46.828125 36.8125 50.984375 
Q 36.8125 55.5625 34.34375 58.03125 
Q 31.890625 60.5 27.546875 60.5 
Q 23.25 60.5 20.703125 57.90625 
Q 18.171875 55.328125 17.78125 49.3125 
L 4.109375 50.6875 
Q 5.328125 62.015625 11.765625 66.9375 
Q 18.21875 71.875 27.875 71.875 
Q 38.484375 71.875 44.53125 66.15625 
Q 50.59375 60.453125 50.59375 51.953125 
Q 50.59375 47.125 48.859375 42.75 
Q 47.125 38.375 43.359375 33.59375 
Q 40.875 30.421875 34.375 24.453125 
Q 27.875 18.5 26.140625 16.546875 
Q 24.421875 14.59375 23.34375 12.75 
z
" id="Arial-BoldMT-32"/>
       <path d="M 27.4375 71.875 
Q 37.84375 71.875 43.703125 64.453125 
Q 50.6875 55.671875 50.6875 35.296875 
Q 50.6875 14.984375 43.65625 6.109375 
Q 37.84375 -1.21875 27.4375 -1.21875 
Q 17 -1.21875 10.59375 6.8125 
Q 4.203125 14.84375 4.203125 35.453125 
Q 4.203125 55.671875 11.234375 64.546875 
Q 17.046875 71.875 27.4375 71.875 
M 27.4375 60.5 
Q 24.953125 60.5 23 58.90625 
Q 21.046875 57.328125 19.96875 53.21875 
Q 18.5625 47.90625 18.5625 35.296875 
Q 18.5625 22.703125 19.828125 17.984375 
Q 21.09375 13.28125 23.015625 11.71875 
Q 24.953125 10.15625 27.4375 10.15625 
Q 29.9375 10.15625 31.890625 11.734375 
Q 33.84375 13.328125 34.90625 17.4375 
Q 36.328125 22.703125 36.328125 35.296875 
Q 36.328125 47.90625 35.0625 52.609375 
Q 33.796875 57.328125 31.859375 58.90625 
Q 29.9375 60.5 27.4375 60.5 
" id="Arial-BoldMT-30"/>
      </defs>
      <g style="fill:#262626;" transform="translate(170.98046875 618.10859375)scale(0.25 -0.25)">
       <use xlink:href="#Arial-BoldMT-32"/>
       <use x="55.615234375" xlink:href="#Arial-BoldMT-30"/>
      </g>
     </g>
    </g>
    <g id="xtick_2">
     <g id="line2d_2">
      <g>
       <use style="fill:#262626;stroke:#262626;stroke-width:0.8;" x="403.2828125" xlink:href="#mdfb252ed54" y="594.6140625"/>
      </g>
     </g>
     <g id="text_2">
      <!-- 40 -->
      <defs>
       <path d="M 31.15625 0 
L 31.15625 14.40625 
L 1.859375 14.40625 
L 1.859375 26.421875 
L 32.90625 71.875 
L 44.4375 71.875 
L 44.4375 26.46875 
L 53.328125 26.46875 
L 53.328125 14.40625 
L 44.4375 14.40625 
L 44.4375 0 
z
M 31.15625 26.46875 
L 31.15625 50.921875 
L 14.703125 26.46875 
z
" id="Arial-BoldMT-34"/>
      </defs>
      <g style="fill:#262626;" transform="translate(389.38046875 618.10859375)scale(0.25 -0.25)">
       <use xlink:href="#Arial-BoldMT-34"/>
       <use x="55.615234375" xlink:href="#Arial-BoldMT-30"/>
      </g>
     </g>
    </g>
    <g id="xtick_3">
     <g id="line2d_3">
      <g>
       <use style="fill:#262626;stroke:#262626;stroke-width:0.8;" x="621.6828125" xlink:href="#mdfb252ed54" y="594.6140625"/>
      </g>
     </g>
     <g id="text_3">
      <!-- 100 -->
      <defs>
       <path d="M 39.359375 0 
L 25.640625 0 
L 25.640625 51.703125 
Q 18.109375 44.671875 7.90625 41.3125 
L 7.90625 53.765625 
Q 13.28125 55.515625 19.578125 60.421875 
Q 25.875 65.328125 28.21875 71.875 
L 39.359375 71.875 
z
" id="Arial-BoldMT-31"/>
      </defs>
      <g style="fill:#262626;" transform="translate(600.829296875 618.10859375)scale(0.25 -0.25)">
       <use xlink:href="#Arial-BoldMT-31"/>
       <use x="55.615234375" xlink:href="#Arial-BoldMT-30"/>
       <use x="111.23046875" xlink:href="#Arial-BoldMT-30"/>
      </g>
     </g>
    </g>
    <g id="text_4">
     <!-- Population size -->
     <defs>
      <path d="M 2.34375 14.796875 
L 16.109375 16.890625 
Q 17 12.890625 19.671875 10.8125 
Q 22.359375 8.734375 27.203125 8.734375 
Q 32.515625 8.734375 35.203125 10.6875 
Q 37.015625 12.0625 37.015625 14.359375 
Q 37.015625 15.921875 36.03125 16.9375 
Q 35.015625 17.921875 31.453125 18.75 
Q 14.84375 22.40625 10.40625 25.4375 
Q 4.25 29.640625 4.25 37.109375 
Q 4.25 43.84375 9.5625 48.4375 
Q 14.890625 53.03125 26.078125 53.03125 
Q 36.71875 53.03125 41.890625 49.5625 
Q 47.078125 46.09375 49.03125 39.3125 
L 36.078125 36.921875 
Q 35.25 39.9375 32.921875 41.546875 
Q 30.609375 43.171875 26.3125 43.171875 
Q 20.90625 43.171875 18.5625 41.65625 
Q 17 40.578125 17 38.875 
Q 17 37.40625 18.359375 36.375 
Q 20.21875 35.015625 31.171875 32.515625 
Q 42.140625 30.03125 46.484375 26.421875 
Q 50.78125 22.75 50.78125 16.21875 
Q 50.78125 9.078125 44.828125 3.953125 
Q 38.875 -1.171875 27.203125 -1.171875 
Q 16.609375 -1.171875 10.421875 3.125 
Q 4.25 7.421875 2.34375 14.796875 
" id="Arial-BoldMT-73"/>
      <path d="M 17.4375 36.03125 
L 4.984375 38.28125 
Q 7.078125 45.796875 12.203125 49.40625 
Q 17.328125 53.03125 27.4375 53.03125 
Q 36.625 53.03125 41.109375 50.859375 
Q 45.609375 48.6875 47.4375 45.34375 
Q 49.265625 42 49.265625 33.0625 
L 49.125 17.046875 
Q 49.125 10.203125 49.78125 6.953125 
Q 50.4375 3.71875 52.25 0 
L 38.671875 0 
Q 38.140625 1.375 37.359375 4.046875 
Q 37.015625 5.28125 36.859375 5.671875 
Q 33.34375 2.25 29.34375 0.53125 
Q 25.34375 -1.171875 20.796875 -1.171875 
Q 12.796875 -1.171875 8.171875 3.171875 
Q 3.5625 7.515625 3.5625 14.15625 
Q 3.5625 18.5625 5.65625 22 
Q 7.765625 25.4375 11.546875 27.265625 
Q 15.328125 29.109375 22.46875 30.46875 
Q 32.078125 32.28125 35.796875 33.84375 
L 35.796875 35.203125 
Q 35.796875 39.15625 33.84375 40.84375 
Q 31.890625 42.53125 26.46875 42.53125 
Q 22.796875 42.53125 20.75 41.09375 
Q 18.703125 39.65625 17.4375 36.03125 
M 35.796875 24.90625 
Q 33.15625 24.03125 27.4375 22.796875 
Q 21.734375 21.578125 19.96875 20.40625 
Q 17.28125 18.5 17.28125 15.578125 
Q 17.28125 12.703125 19.421875 10.59375 
Q 21.578125 8.5 24.90625 8.5 
Q 28.609375 8.5 31.984375 10.9375 
Q 34.46875 12.796875 35.25 15.484375 
Q 35.796875 17.234375 35.796875 22.171875 
z
" id="Arial-BoldMT-61"/>
      <path d="M 6.78125 51.859375 
L 19.578125 51.859375 
L 19.578125 44.234375 
Q 22.078125 48.140625 26.3125 50.578125 
Q 30.5625 53.03125 35.75 53.03125 
Q 44.78125 53.03125 51.078125 45.953125 
Q 57.375 38.875 57.375 26.21875 
Q 57.375 13.234375 51.015625 6.03125 
Q 44.671875 -1.171875 35.640625 -1.171875 
Q 31.34375 -1.171875 27.84375 0.53125 
Q 24.359375 2.25 20.515625 6.390625 
L 20.515625 -19.734375 
L 6.78125 -19.734375 
z
M 20.359375 26.8125 
Q 20.359375 18.0625 23.828125 13.890625 
Q 27.296875 9.71875 32.28125 9.71875 
Q 37.0625 9.71875 40.234375 13.546875 
Q 43.40625 17.390625 43.40625 26.125 
Q 43.40625 34.28125 40.125 38.234375 
Q 36.859375 42.1875 32.03125 42.1875 
Q 27 42.1875 23.671875 38.296875 
Q 20.359375 34.421875 20.359375 26.8125 
" id="Arial-BoldMT-70"/>
      <path d="M 37.203125 16.5 
L 50.875 14.203125 
Q 48.25 6.6875 42.546875 2.75 
Q 36.859375 -1.171875 28.328125 -1.171875 
Q 14.796875 -1.171875 8.296875 7.671875 
Q 3.171875 14.75 3.171875 25.53125 
Q 3.171875 38.421875 9.90625 45.71875 
Q 16.65625 53.03125 26.953125 53.03125 
Q 38.53125 53.03125 45.21875 45.390625 
Q 51.90625 37.75 51.609375 21.96875 
L 17.234375 21.96875 
Q 17.390625 15.875 20.5625 12.46875 
Q 23.734375 9.078125 28.46875 9.078125 
Q 31.6875 9.078125 33.875 10.828125 
Q 36.078125 12.59375 37.203125 16.5 
M 37.984375 30.375 
Q 37.84375 36.328125 34.90625 39.421875 
Q 31.984375 42.53125 27.78125 42.53125 
Q 23.296875 42.53125 20.359375 39.265625 
Q 17.4375 35.984375 17.484375 30.375 
z
" id="Arial-BoldMT-65"/>
      <path d="M 41.3125 0 
L 41.3125 7.765625 
Q 38.484375 3.609375 33.859375 1.21875 
Q 29.25 -1.171875 24.125 -1.171875 
Q 18.890625 -1.171875 14.734375 1.125 
Q 10.59375 3.421875 8.734375 7.5625 
Q 6.890625 11.71875 6.890625 19.046875 
L 6.890625 51.859375 
L 20.609375 51.859375 
L 20.609375 28.03125 
Q 20.609375 17.09375 21.359375 14.625 
Q 22.125 12.15625 24.125 10.71875 
Q 26.125 9.28125 29.203125 9.28125 
Q 32.71875 9.28125 35.5 11.203125 
Q 38.28125 13.140625 39.296875 15.984375 
Q 40.328125 18.84375 40.328125 29.984375 
L 40.328125 51.859375 
L 54.046875 51.859375 
L 54.046875 0 
z
" id="Arial-BoldMT-75"/>
      <path d="M 30.953125 51.859375 
L 30.953125 40.921875 
L 21.578125 40.921875 
L 21.578125 20.015625 
Q 21.578125 13.671875 21.84375 12.625 
Q 22.125 11.578125 23.078125 10.890625 
Q 24.03125 10.203125 25.390625 10.203125 
Q 27.296875 10.203125 30.90625 11.53125 
L 32.078125 0.875 
Q 27.296875 -1.171875 21.234375 -1.171875 
Q 17.53125 -1.171875 14.546875 0.0625 
Q 11.578125 1.3125 10.1875 3.296875 
Q 8.796875 5.28125 8.25 8.640625 
Q 7.8125 11.03125 7.8125 18.3125 
L 7.8125 40.921875 
L 1.515625 40.921875 
L 1.515625 51.859375 
L 7.8125 51.859375 
L 7.8125 62.15625 
L 21.578125 70.171875 
L 21.578125 51.859375 
z
" id="Arial-BoldMT-74"/>
      <path d="M 7.171875 58.890625 
L 7.171875 71.578125 
L 20.90625 71.578125 
L 20.90625 58.890625 
z
M 7.171875 0 
L 7.171875 51.859375 
L 20.90625 51.859375 
L 20.90625 0 
z
" id="Arial-BoldMT-69"/>
      <path id="Arial-BoldMT-20"/>
      <path d="M 1.65625 0 
L 1.65625 10.6875 
L 21.09375 33.015625 
Q 25.875 38.484375 28.171875 40.765625 
Q 25.78125 40.625 21.875 40.578125 
L 3.5625 40.484375 
L 3.5625 51.859375 
L 46.4375 51.859375 
L 46.4375 42.140625 
L 26.609375 19.28125 
L 19.625 11.71875 
Q 25.34375 12.0625 26.703125 12.0625 
L 47.953125 12.0625 
L 47.953125 0 
z
" id="Arial-BoldMT-7a"/>
      <path d="M 7.171875 0 
L 7.171875 71.578125 
L 20.90625 71.578125 
L 20.90625 0 
z
" id="Arial-BoldMT-6c"/>
      <path d="M 54.34375 0 
L 40.625 0 
L 40.625 26.46875 
Q 40.625 34.859375 39.75 37.328125 
Q 38.875 39.796875 36.890625 41.15625 
Q 34.90625 42.53125 32.125 42.53125 
Q 28.5625 42.53125 25.734375 40.578125 
Q 22.90625 38.625 21.84375 35.390625 
Q 20.796875 32.171875 20.796875 23.484375 
L 20.796875 0 
L 7.078125 0 
L 7.078125 51.859375 
L 19.828125 51.859375 
L 19.828125 44.234375 
Q 26.609375 53.03125 36.921875 53.03125 
Q 41.453125 53.03125 45.203125 51.390625 
Q 48.96875 49.75 50.890625 47.203125 
Q 52.828125 44.671875 53.578125 41.453125 
Q 54.34375 38.234375 54.34375 32.234375 
z
" id="Arial-BoldMT-6e"/>
      <path d="M 4 26.65625 
Q 4 33.5 7.375 39.890625 
Q 10.75 46.296875 16.921875 49.65625 
Q 23.09375 53.03125 30.71875 53.03125 
Q 42.484375 53.03125 50 45.390625 
Q 57.515625 37.75 57.515625 26.078125 
Q 57.515625 14.3125 49.921875 6.5625 
Q 42.328125 -1.171875 30.8125 -1.171875 
Q 23.6875 -1.171875 17.21875 2.046875 
Q 10.75 5.28125 7.375 11.5 
Q 4 17.71875 4 26.65625 
M 18.0625 25.921875 
Q 18.0625 18.21875 21.71875 14.109375 
Q 25.390625 10.015625 30.765625 10.015625 
Q 36.140625 10.015625 39.765625 14.109375 
Q 43.40625 18.21875 43.40625 26.03125 
Q 43.40625 33.640625 39.765625 37.734375 
Q 36.140625 41.84375 30.765625 41.84375 
Q 25.390625 41.84375 21.71875 37.734375 
Q 18.0625 33.640625 18.0625 25.921875 
" id="Arial-BoldMT-6f"/>
      <path d="M 7.28125 0 
L 7.28125 71.578125 
L 30.46875 71.578125 
Q 43.65625 71.578125 47.65625 70.515625 
Q 53.8125 68.890625 57.953125 63.5 
Q 62.109375 58.109375 62.109375 49.5625 
Q 62.109375 42.96875 59.71875 38.46875 
Q 57.328125 33.984375 53.640625 31.421875 
Q 49.953125 28.859375 46.140625 28.03125 
Q 40.96875 27 31.15625 27 
L 21.734375 27 
L 21.734375 0 
z
M 21.734375 59.46875 
L 21.734375 39.15625 
L 29.640625 39.15625 
Q 38.1875 39.15625 41.0625 40.28125 
Q 43.953125 41.40625 45.578125 43.796875 
Q 47.21875 46.1875 47.21875 49.359375 
Q 47.21875 53.265625 44.921875 55.796875 
Q 42.625 58.34375 39.109375 58.984375 
Q 36.53125 59.46875 28.71875 59.46875 
z
" id="Arial-BoldMT-50"/>
     </defs>
     <g style="fill:#262626;" transform="translate(311.61484375 645.93671875)scale(0.25 -0.25)">
      <use xlink:href="#Arial-BoldMT-50"/>
      <use x="66.69921875" xlink:href="#Arial-BoldMT-6f"/>
      <use x="127.783203125" xlink:href="#Arial-BoldMT-70"/>
      <use x="188.8671875" xlink:href="#Arial-BoldMT-75"/>
      <use x="249.951171875" xlink:href="#Arial-BoldMT-6c"/>
      <use x="277.734375" xlink:href="#Arial-BoldMT-61"/>
      <use x="333.349609375" xlink:href="#Arial-BoldMT-74"/>
      <use x="366.650390625" xlink:href="#Arial-BoldMT-69"/>
      <use x="394.43359375" xlink:href="#Arial-BoldMT-6f"/>
      <use x="455.517578125" xlink:href="#Arial-BoldMT-6e"/>
      <use x="516.6015625" xlink:href="#Arial-BoldMT-20"/>
      <use x="544.384765625" xlink:href="#Arial-BoldMT-73"/>
      <use x="600.0" xlink:href="#Arial-BoldMT-69"/>
      <use x="627.783203125" xlink:href="#Arial-BoldMT-7a"/>
      <use x="677.783203125" xlink:href="#Arial-BoldMT-65"/>
     </g>
    </g>
   </g>
   <g id="matplotlib.axis_2">
    <g id="ytick_1">
     <g id="line2d_4">
      <path clip-path="url(#p1e1eb9b23c)" d="M 75.682813 594.614062 
L 730.882812 594.614062 
" style="fill:none;stroke:#e6e6e6;stroke-linecap:round;"/>
     </g>
     <g id="line2d_5">
      <g>
       <use style="fill:#262626;stroke:#262626;stroke-width:0.8;" x="75.6828125" xlink:href="#mdfb252ed54" y="594.6140625"/>
      </g>
     </g>
     <g id="text_5">
      <!-- 0.0 -->
      <defs>
       <path d="M 7.171875 0 
L 7.171875 13.71875 
L 20.90625 13.71875 
L 20.90625 0 
z
" id="Arial-BoldMT-2e"/>
      </defs>
      <g style="fill:#262626;" transform="translate(35.3328125 601.09453125)scale(0.25 -0.25)">
       <use xlink:href="#Arial-BoldMT-30"/>
       <use x="55.615234375" xlink:href="#Arial-BoldMT-2e"/>
       <use x="83.3984375" xlink:href="#Arial-BoldMT-30"/>
      </g>
     </g>
    </g>
    <g id="ytick_2">
     <g id="line2d_6">
      <path clip-path="url(#p1e1eb9b23c)" d="M 75.682813 479.414062 
L 730.882812 479.414062 
" style="fill:none;stroke:#e6e6e6;stroke-linecap:round;"/>
     </g>
     <g id="line2d_7">
      <g>
       <use style="fill:#262626;stroke:#262626;stroke-width:0.8;" x="75.6828125" xlink:href="#mdfb252ed54" y="479.4140625"/>
      </g>
     </g>
     <g id="text_6">
      <!-- 0.2 -->
      <g style="fill:#262626;" transform="translate(35.3328125 485.89453125)scale(0.25 -0.25)">
       <use xlink:href="#Arial-BoldMT-30"/>
       <use x="55.615234375" xlink:href="#Arial-BoldMT-2e"/>
       <use x="83.3984375" xlink:href="#Arial-BoldMT-32"/>
      </g>
     </g>
    </g>
    <g id="ytick_3">
     <g id="line2d_8">
      <path clip-path="url(#p1e1eb9b23c)" d="M 75.682813 364.214062 
L 730.882812 364.214062 
" style="fill:none;stroke:#e6e6e6;stroke-linecap:round;"/>
     </g>
     <g id="line2d_9">
      <g>
       <use style="fill:#262626;stroke:#262626;stroke-width:0.8;" x="75.6828125" xlink:href="#mdfb252ed54" y="364.2140625"/>
      </g>
     </g>
     <g id="text_7">
      <!-- 0.4 -->
      <g style="fill:#262626;" transform="translate(35.3328125 370.69453125)scale(0.25 -0.25)">
       <use xlink:href="#Arial-BoldMT-30"/>
       <use x="55.615234375" xlink:href="#Arial-BoldMT-2e"/>
       <use x="83.3984375" xlink:href="#Arial-BoldMT-34"/>
      </g>
     </g>
    </g>
    <g id="ytick_4">
     <g id="line2d_10">
      <path clip-path="url(#p1e1eb9b23c)" d="M 75.682813 249.014062 
L 730.882812 249.014062 
" style="fill:none;stroke:#e6e6e6;stroke-linecap:round;"/>
     </g>
     <g id="line2d_11">
      <g>
       <use style="fill:#262626;stroke:#262626;stroke-width:0.8;" x="75.6828125" xlink:href="#mdfb252ed54" y="249.0140625"/>
      </g>
     </g>
     <g id="text_8">
      <!-- 0.6 -->
      <defs>
       <path d="M 50.734375 54.046875 
L 37.453125 52.59375 
Q 36.96875 56.6875 34.90625 58.640625 
Q 32.859375 60.59375 29.59375 60.59375 
Q 25.25 60.59375 22.234375 56.6875 
Q 19.234375 52.78125 18.453125 40.4375 
Q 23.578125 46.484375 31.203125 46.484375 
Q 39.796875 46.484375 45.921875 39.9375 
Q 52.046875 33.40625 52.046875 23.046875 
Q 52.046875 12.0625 45.59375 5.421875 
Q 39.15625 -1.21875 29.046875 -1.21875 
Q 18.21875 -1.21875 11.234375 7.203125 
Q 4.25 15.625 4.25 34.8125 
Q 4.25 54.5 11.515625 63.1875 
Q 18.796875 71.875 30.421875 71.875 
Q 38.578125 71.875 43.921875 67.3125 
Q 49.265625 62.75 50.734375 54.046875 
M 19.625 24.125 
Q 19.625 17.4375 22.703125 13.796875 
Q 25.78125 10.15625 29.734375 10.15625 
Q 33.546875 10.15625 36.078125 13.125 
Q 38.625 16.109375 38.625 22.90625 
Q 38.625 29.890625 35.890625 33.125 
Q 33.15625 36.375 29.046875 36.375 
Q 25.09375 36.375 22.359375 33.265625 
Q 19.625 30.171875 19.625 24.125 
" id="Arial-BoldMT-36"/>
      </defs>
      <g style="fill:#262626;" transform="translate(35.3328125 255.49453125)scale(0.25 -0.25)">
       <use xlink:href="#Arial-BoldMT-30"/>
       <use x="55.615234375" xlink:href="#Arial-BoldMT-2e"/>
       <use x="83.3984375" xlink:href="#Arial-BoldMT-36"/>
      </g>
     </g>
    </g>
    <g id="ytick_5">
     <g id="line2d_12">
      <path clip-path="url(#p1e1eb9b23c)" d="M 75.682813 133.814062 
L 730.882812 133.814062 
" style="fill:none;stroke:#e6e6e6;stroke-linecap:round;"/>
     </g>
     <g id="line2d_13">
      <g>
       <use style="fill:#262626;stroke:#262626;stroke-width:0.8;" x="75.6828125" xlink:href="#mdfb252ed54" y="133.8140625"/>
      </g>
     </g>
     <g id="text_9">
      <!-- 0.8 -->
      <defs>
       <path d="M 16.015625 38.625 
Q 10.6875 40.875 8.265625 44.796875 
Q 5.859375 48.734375 5.859375 53.421875 
Q 5.859375 61.421875 11.453125 66.640625 
Q 17.046875 71.875 27.34375 71.875 
Q 37.546875 71.875 43.1875 66.640625 
Q 48.828125 61.421875 48.828125 53.421875 
Q 48.828125 48.4375 46.234375 44.546875 
Q 43.65625 40.671875 38.96875 38.625 
Q 44.921875 36.234375 48.015625 31.640625 
Q 51.125 27.046875 51.125 21.046875 
Q 51.125 11.140625 44.796875 4.9375 
Q 38.484375 -1.265625 27.984375 -1.265625 
Q 18.21875 -1.265625 11.71875 3.859375 
Q 4.046875 9.90625 4.046875 20.453125 
Q 4.046875 26.265625 6.921875 31.125 
Q 9.8125 35.984375 16.015625 38.625 
M 18.84375 52.4375 
Q 18.84375 48.34375 21.15625 46.046875 
Q 23.484375 43.75 27.34375 43.75 
Q 31.25 43.75 33.59375 46.0625 
Q 35.9375 48.390625 35.9375 52.484375 
Q 35.9375 56.34375 33.609375 58.65625 
Q 31.296875 60.984375 27.484375 60.984375 
Q 23.53125 60.984375 21.1875 58.640625 
Q 18.84375 56.296875 18.84375 52.4375 
M 17.578125 21.78125 
Q 17.578125 16.109375 20.484375 12.9375 
Q 23.390625 9.765625 27.734375 9.765625 
Q 31.984375 9.765625 34.765625 12.8125 
Q 37.546875 15.875 37.546875 21.625 
Q 37.546875 26.65625 34.71875 29.703125 
Q 31.890625 32.765625 27.546875 32.765625 
Q 22.515625 32.765625 20.046875 29.296875 
Q 17.578125 25.828125 17.578125 21.78125 
" id="Arial-BoldMT-38"/>
      </defs>
      <g style="fill:#262626;" transform="translate(35.3328125 140.29453125)scale(0.25 -0.25)">
       <use xlink:href="#Arial-BoldMT-30"/>
       <use x="55.615234375" xlink:href="#Arial-BoldMT-2e"/>
       <use x="83.3984375" xlink:href="#Arial-BoldMT-38"/>
      </g>
     </g>
    </g>
    <g id="ytick_6">
     <g id="line2d_14">
      <path clip-path="url(#p1e1eb9b23c)" d="M 75.682813 18.614062 
L 730.882812 18.614062 
" style="fill:none;stroke:#e6e6e6;stroke-linecap:round;"/>
     </g>
     <g id="line2d_15">
      <g>
       <use style="fill:#262626;stroke:#262626;stroke-width:0.8;" x="75.6828125" xlink:href="#mdfb252ed54" y="18.6140625"/>
      </g>
     </g>
     <g id="text_10">
      <!-- 1.0 -->
      <g style="fill:#262626;" transform="translate(35.3328125 25.09453125)scale(0.25 -0.25)">
       <use xlink:href="#Arial-BoldMT-31"/>
       <use x="55.615234375" xlink:href="#Arial-BoldMT-2e"/>
       <use x="83.3984375" xlink:href="#Arial-BoldMT-30"/>
      </g>
     </g>
    </g>
    <g id="text_11">
     <!-- Proportion of time -->
     <defs>
      <path d="M 20.3125 0 
L 6.59375 0 
L 6.59375 51.859375 
L 19.34375 51.859375 
L 19.34375 44.484375 
Q 22.609375 49.703125 25.21875 51.359375 
Q 27.828125 53.03125 31.15625 53.03125 
Q 35.84375 53.03125 40.1875 50.4375 
L 35.9375 38.484375 
Q 32.46875 40.71875 29.5 40.71875 
Q 26.609375 40.71875 24.609375 39.125 
Q 22.609375 37.546875 21.453125 33.390625 
Q 20.3125 29.25 20.3125 16.015625 
z
" id="Arial-BoldMT-72"/>
      <path d="M 6.15625 51.859375 
L 18.796875 51.859375 
L 18.796875 44.78125 
Q 25.59375 53.03125 34.96875 53.03125 
Q 39.9375 53.03125 43.59375 50.96875 
Q 47.265625 48.921875 49.609375 44.78125 
Q 53.03125 48.921875 56.984375 50.96875 
Q 60.9375 53.03125 65.4375 53.03125 
Q 71.140625 53.03125 75.09375 50.703125 
Q 79.046875 48.390625 81 43.890625 
Q 82.421875 40.578125 82.421875 33.15625 
L 82.421875 0 
L 68.703125 0 
L 68.703125 29.640625 
Q 68.703125 37.359375 67.28125 39.59375 
Q 65.375 42.53125 61.421875 42.53125 
Q 58.546875 42.53125 56 40.765625 
Q 53.46875 39.015625 52.34375 35.625 
Q 51.21875 32.234375 51.21875 24.90625 
L 51.21875 0 
L 37.5 0 
L 37.5 28.421875 
Q 37.5 35.984375 36.765625 38.171875 
Q 36.03125 40.375 34.484375 41.453125 
Q 32.953125 42.53125 30.328125 42.53125 
Q 27.15625 42.53125 24.609375 40.8125 
Q 22.078125 39.109375 20.96875 35.890625 
Q 19.875 32.671875 19.875 25.203125 
L 19.875 0 
L 6.15625 0 
z
" id="Arial-BoldMT-6d"/>
      <path d="M 1.171875 51.859375 
L 8.796875 51.859375 
L 8.796875 55.765625 
Q 8.796875 62.3125 10.1875 65.53125 
Q 11.578125 68.75 15.3125 70.765625 
Q 19.046875 72.796875 24.75 72.796875 
Q 30.609375 72.796875 36.234375 71.046875 
L 34.375 61.46875 
Q 31.109375 62.25 28.078125 62.25 
Q 25.09375 62.25 23.796875 60.859375 
Q 22.515625 59.46875 22.515625 55.515625 
L 22.515625 51.859375 
L 32.765625 51.859375 
L 32.765625 41.0625 
L 22.515625 41.0625 
L 22.515625 0 
L 8.796875 0 
L 8.796875 41.0625 
L 1.171875 41.0625 
z
" id="Arial-BoldMT-66"/>
     </defs>
     <g style="fill:#262626;" transform="translate(25.39921875 414.934375)rotate(-90.0)scale(0.25 -0.25)">
      <use xlink:href="#Arial-BoldMT-50"/>
      <use x="66.69921875" xlink:href="#Arial-BoldMT-72"/>
      <use x="105.615234375" xlink:href="#Arial-BoldMT-6f"/>
      <use x="166.69921875" xlink:href="#Arial-BoldMT-70"/>
      <use x="227.783203125" xlink:href="#Arial-BoldMT-6f"/>
      <use x="288.8671875" xlink:href="#Arial-BoldMT-72"/>
      <use x="327.783203125" xlink:href="#Arial-BoldMT-74"/>
      <use x="361.083984375" xlink:href="#Arial-BoldMT-69"/>
      <use x="388.8671875" xlink:href="#Arial-BoldMT-6f"/>
      <use x="449.951171875" xlink:href="#Arial-BoldMT-6e"/>
      <use x="511.03515625" xlink:href="#Arial-BoldMT-20"/>
      <use x="538.818359375" xlink:href="#Arial-BoldMT-6f"/>
      <use x="599.90234375" xlink:href="#Arial-BoldMT-66"/>
      <use x="633.203125" xlink:href="#Arial-BoldMT-20"/>
      <use x="660.986328125" xlink:href="#Arial-BoldMT-74"/>
      <use x="694.287109375" xlink:href="#Arial-BoldMT-69"/>
      <use x="722.0703125" xlink:href="#Arial-BoldMT-6d"/>
      <use x="810.986328125" xlink:href="#Arial-BoldMT-65"/>
     </g>
    </g>
   </g>
   <g id="patch_3">
    <path clip-path="url(#p1e1eb9b23c)" d="z
" style="fill:#f77189;"/>
   </g>
   <g id="patch_4">
    <path clip-path="url(#p1e1eb9b23c)" d="M 152.122812 590.80145 
L 217.642812 590.80145 
z
" style="fill:#f77189;"/>
   </g>
   <g id="patch_5">
    <path clip-path="url(#p1e1eb9b23c)" d="M 152.122812 590.80145 
L 217.642812 590.80145 
L 217.642812 528.912744 
z
" style="fill:#f77189;"/>
   </g>
   <g id="patch_6">
    <path clip-path="url(#p1e1eb9b23c)" d="M 152.122812 590.80145 
L 217.642812 590.80145 
L 217.642812 528.912744 
L 152.122812 528.912744 
z
" style="fill:#f77189;"/>
   </g>
   <g id="patch_7">
    <path clip-path="url(#p1e1eb9b23c)" d="M 152.122812 590.80145 
L 217.642812 590.80145 
L 217.642812 528.912744 
L 152.122812 528.912744 
z
" style="fill:#f77189;"/>
   </g>
   <g id="patch_8">
    <path clip-path="url(#p1e1eb9b23c)" d="z
" style="fill:#50b131;"/>
   </g>
   <g id="patch_9">
    <path clip-path="url(#p1e1eb9b23c)" d="M 370.522812 587.849107 
L 436.042812 587.849107 
z
" style="fill:#50b131;"/>
   </g>
   <g id="patch_10">
    <path clip-path="url(#p1e1eb9b23c)" d="M 370.522812 587.849107 
L 436.042812 587.849107 
L 436.042812 399.807868 
z
" style="fill:#50b131;"/>
   </g>
   <g id="patch_11">
    <path clip-path="url(#p1e1eb9b23c)" d="M 370.522812 587.849107 
L 436.042812 587.849107 
L 436.042812 399.807868 
L 370.522812 399.807868 
z
" style="fill:#50b131;"/>
   </g>
   <g id="patch_12">
    <path clip-path="url(#p1e1eb9b23c)" d="M 370.522812 587.849107 
L 436.042812 587.849107 
L 436.042812 399.807868 
L 370.522812 399.807868 
z
" style="fill:#50b131;"/>
   </g>
   <g id="patch_13">
    <path clip-path="url(#p1e1eb9b23c)" d="z
" style="fill:#3ba3ec;"/>
   </g>
   <g id="patch_14">
    <path clip-path="url(#p1e1eb9b23c)" d="M 588.922812 574.460506 
L 654.442812 574.460506 
z
" style="fill:#3ba3ec;"/>
   </g>
   <g id="patch_15">
    <path clip-path="url(#p1e1eb9b23c)" d="M 588.922812 574.460506 
L 654.442812 574.460506 
L 654.442812 380.125099 
z
" style="fill:#3ba3ec;"/>
   </g>
   <g id="patch_16">
    <path clip-path="url(#p1e1eb9b23c)" d="M 588.922812 574.460506 
L 654.442812 574.460506 
L 654.442812 380.125099 
L 588.922812 380.125099 
z
" style="fill:#3ba3ec;"/>
   </g>
   <g id="patch_17">
    <path clip-path="url(#p1e1eb9b23c)" d="M 588.922812 574.460506 
L 654.442812 574.460506 
L 654.442812 380.125099 
L 588.922812 380.125099 
z
" style="fill:#3ba3ec;"/>
   </g>
   <g id="line2d_16">
    <path clip-path="url(#p1e1eb9b23c)" d="M 152.122812 590.80145 
L 217.642812 590.80145 
L 217.642812 528.912744 
L 152.122812 528.912744 
L 152.122812 590.80145 
" style="fill:none;"/>
   </g>
   <g id="line2d_17">
    <path clip-path="url(#p1e1eb9b23c)" d="M 184.882812 590.80145 
L 184.882812 592.416987 
" style="fill:none;stroke:#f77189;stroke-dasharray:6.000000,6.000000;stroke-dashoffset:0.0;stroke-width:2.0;"/>
   </g>
   <g id="line2d_18">
    <path clip-path="url(#p1e1eb9b23c)" d="M 184.882812 528.912744 
L 184.882812 527.864486 
" style="fill:none;stroke:#f77189;stroke-dasharray:6.000000,6.000000;stroke-dashoffset:0.0;stroke-width:2.0;"/>
   </g>
   <g id="line2d_19">
    <path clip-path="url(#p1e1eb9b23c)" d="M 168.502812 592.416987 
L 201.262812 592.416987 
" style="fill:none;"/>
   </g>
   <g id="line2d_20">
    <path clip-path="url(#p1e1eb9b23c)" d="M 168.502812 527.864486 
L 201.262812 527.864486 
" style="fill:none;"/>
   </g>
   <g id="line2d_21">
    <path clip-path="url(#p1e1eb9b23c)" d="M 152.122812 588.24757 
L 217.642812 588.24757 
" style="fill:none;stroke:#000000;stroke-linecap:round;stroke-width:3.0;"/>
   </g>
   <g id="line2d_22">
    <defs>
     <path d="M 0 3 
C 0.795609 3 1.55874 2.683901 2.12132 2.12132 
C 2.683901 1.55874 3 0.795609 3 0 
C 3 -0.795609 2.683901 -1.55874 2.12132 -2.12132 
C 1.55874 -2.683901 0.795609 -3 0 -3 
C -0.795609 -3 -1.55874 -2.683901 -2.12132 -2.12132 
C -2.683901 -1.55874 -3 -0.795609 -3 0 
C -3 0.795609 -2.683901 1.55874 -2.12132 2.12132 
C -1.55874 2.683901 -0.795609 3 0 3 
z
" id="m31b205a90c"/>
    </defs>
    <g clip-path="url(#p1e1eb9b23c)">
     <use style="fill-opacity:0.75;" x="184.8828125" xlink:href="#m31b205a90c" y="420.832244318"/>
     <use style="fill-opacity:0.75;" x="184.8828125" xlink:href="#m31b205a90c" y="356.779476034"/>
    </g>
   </g>
   <g id="line2d_23">
    <path clip-path="url(#p1e1eb9b23c)" d="M 370.522812 587.849107 
L 436.042812 587.849107 
L 436.042812 399.807868 
L 370.522812 399.807868 
L 370.522812 587.849107 
" style="fill:none;"/>
   </g>
   <g id="line2d_24">
    <path clip-path="url(#p1e1eb9b23c)" d="M 403.282812 587.849107 
L 403.282812 594.614062 
" style="fill:none;stroke:#50b131;stroke-dasharray:6.000000,6.000000;stroke-dashoffset:0.0;stroke-width:2.0;"/>
   </g>
   <g id="line2d_25">
    <path clip-path="url(#p1e1eb9b23c)" d="M 403.282812 399.807868 
L 403.282812 238.233774 
" style="fill:none;stroke:#50b131;stroke-dasharray:6.000000,6.000000;stroke-dashoffset:0.0;stroke-width:2.0;"/>
   </g>
   <g id="line2d_26">
    <path clip-path="url(#p1e1eb9b23c)" d="M 386.902812 594.614062 
L 419.662812 594.614062 
" style="fill:none;"/>
   </g>
   <g id="line2d_27">
    <path clip-path="url(#p1e1eb9b23c)" d="M 386.902812 238.233774 
L 419.662812 238.233774 
" style="fill:none;"/>
   </g>
   <g id="line2d_28">
    <path clip-path="url(#p1e1eb9b23c)" d="M 370.522812 562.148608 
L 436.042812 562.148608 
" style="fill:none;stroke:#000000;stroke-linecap:round;stroke-width:3.0;"/>
   </g>
   <g id="line2d_29"/>
   <g id="line2d_30">
    <path clip-path="url(#p1e1eb9b23c)" d="M 588.922812 574.460506 
L 654.442812 574.460506 
L 654.442812 380.125099 
L 588.922812 380.125099 
L 588.922812 574.460506 
" style="fill:none;"/>
   </g>
   <g id="line2d_31">
    <path clip-path="url(#p1e1eb9b23c)" d="M 621.682812 574.460506 
L 621.682812 593.159517 
" style="fill:none;stroke:#3ba3ec;stroke-dasharray:6.000000,6.000000;stroke-dashoffset:0.0;stroke-width:2.0;"/>
   </g>
   <g id="line2d_32">
    <path clip-path="url(#p1e1eb9b23c)" d="M 621.682812 380.125099 
L 621.682812 168.811531 
" style="fill:none;stroke:#3ba3ec;stroke-dasharray:6.000000,6.000000;stroke-dashoffset:0.0;stroke-width:2.0;"/>
   </g>
   <g id="line2d_33">
    <path clip-path="url(#p1e1eb9b23c)" d="M 605.302812 593.159517 
L 638.062812 593.159517 
" style="fill:none;"/>
   </g>
   <g id="line2d_34">
    <path clip-path="url(#p1e1eb9b23c)" d="M 605.302812 168.811531 
L 638.062812 168.811531 
" style="fill:none;"/>
   </g>
   <g id="line2d_35">
    <path clip-path="url(#p1e1eb9b23c)" d="M 588.922812 462.10702 
L 654.442812 462.10702 
" style="fill:none;stroke:#000000;stroke-linecap:round;stroke-width:3.0;"/>
   </g>
   <g id="line2d_36"/>
   <g id="patch_18">
    <path d="M 75.682813 594.614062 
L 730.882812 594.614062 
" style="fill:none;stroke:#262626;stroke-linecap:square;stroke-linejoin:miter;stroke-width:1.25;"/>
   </g>
   <g id="patch_19">
    <path d="M 621.682812 160.611885 
L 621.682812 140.774062 
L 184.882812 140.774062 
L 184.882812 160.611885 
" style="fill:none;stroke:#000000;stroke-linecap:round;stroke-width:0.24;"/>
   </g>
   <g id="text_12">
    <!-- * -->
    <defs>
     <path d="M 11.96875 38.671875 
L 4.59375 44.390625 
Q 8.109375 48.34375 11.921875 51.953125 
Q 13.421875 53.421875 13.8125 53.8125 
Q 12.59375 54 6.84375 55.421875 
Q 2.6875 56.453125 1.375 56.9375 
L 4.25 65.53125 
Q 10.640625 62.9375 15.671875 59.8125 
Q 14.5 67.78125 14.5 72.796875 
L 23.1875 72.796875 
Q 23.1875 69.234375 21.875 59.71875 
Q 22.859375 60.109375 26.078125 61.625 
Q 30.46875 63.625 34.1875 65.046875 
L 36.765625 56.203125 
Q 31.34375 54.984375 24.21875 53.8125 
L 30.078125 47.21875 
Q 31.84375 45.21875 32.859375 43.953125 
L 25.390625 39.015625 
L 18.796875 49.90625 
Q 15.828125 44.625 11.96875 38.671875 
" id="Arial-BoldMT-2a"/>
    </defs>
    <g style="fill:#262626;" transform="translate(400.363671875 137.70234375)scale(0.15 -0.15)">
     <use xlink:href="#Arial-BoldMT-2a"/>
    </g>
   </g>
  </g>
 </g>
 <defs>
  <clipPath id="p1e1eb9b23c">
   <rect height="576.0" width="655.2" x="75.6828125" y="18.6140625"/>
  </clipPath>
 </defs>
</svg>
